<svg xmlns="http://www.w3.org/2000/svg" viewBox="0 0 1224.51 168.13"><defs><style>.cls-1{fill:#263c7e;}.cls-2{fill:#2a3f86;}.cls-3{fill:#218fca;}</style></defs><title>LogoSSN</title><g id="Layer_2" data-name="Layer 2"><g id="Capa_2" data-name="Capa 2"><path class="cls-1" d="M258.18,36.45A43.8,43.8,0,0,1,275,52.12L262.44,63.44q-4.34-9.32-10.87-13.49t-17.37-4.2q-10.69,0-16.59,4.27t-5.9,10.93c0,4.15,1.92,7.43,5.74,9.87s10.65,4.52,20.48,6.27q13.8,2.5,21.95,6.28t11.86,9.46q3.72,5.66,3.73,14a25.68,25.68,0,0,1-5.12,15.82A32.09,32.09,0,0,1,256,133.16a57.56,57.56,0,0,1-21.33,3.66q-31.18,0-44.05-20.8l11.63-11.62q4.94,9.29,12.8,13.65t19.46,4.33q11,0,17.3-3.8a11.93,11.93,0,0,0,6.28-10.78c0-3.72-1.88-6.71-5.66-9s-10.37-4.29-19.79-6.05-16.9-3.93-22.49-6.52-9.64-5.79-12.17-9.61a24.79,24.79,0,0,1-3.8-14A27.7,27.7,0,0,1,199,46.84a32.75,32.75,0,0,1,13.88-11.32,50,50,0,0,1,21.17-4.2Q248.16,31.32,258.18,36.45Z"/><path class="cls-1" d="M347.68,36.45a43.8,43.8,0,0,1,16.83,15.68L351.95,63.44q-4.34-9.32-10.86-13.49t-17.37-4.2q-10.7,0-16.6,4.27t-5.9,10.93c0,4.15,1.92,7.43,5.75,9.87s10.65,4.52,20.47,6.27q13.8,2.5,22,6.28t11.87,9.46q3.72,5.66,3.72,14a25.67,25.67,0,0,1-5.13,15.82,32,32,0,0,1-14.35,10.46,57.52,57.52,0,0,1-21.33,3.66q-31.18,0-44.05-20.8l11.63-11.62q5,9.29,12.79,13.65T324,122.38q11,0,17.3-3.8a11.94,11.94,0,0,0,6.27-10.78c0-3.72-1.88-6.71-5.66-9s-10.37-4.29-19.77-6.05-16.91-3.93-22.5-6.52-9.65-5.79-12.18-9.61a24.79,24.79,0,0,1-3.79-14,27.7,27.7,0,0,1,4.8-15.82,32.8,32.8,0,0,1,13.88-11.32,50.07,50.07,0,0,1,21.18-4.2Q337.69,31.32,347.68,36.45Z"/><path class="cls-1" d="M458.06,135.26h-19.7L398.79,70.73,388.87,51.8h-.15l.62,17.37v66.08h-15.2V32.87h19.54l39.4,64.38,10.09,19.08h.15L442.7,99V32.87h15.36Z"/><path class="cls-2" d="M564.57,39.81l-4.08,3.31a12.55,12.55,0,0,0-4.24-5.52A12,12,0,0,0,549.53,36c-3,0-5.36.6-7.07,1.88a5.61,5.61,0,0,0-2.58,4.73,4.74,4.74,0,0,0,1,3.14,7.78,7.78,0,0,0,3.35,2.19,33.17,33.17,0,0,0,6.48,1.61c5.18.85,8.83,2.17,11,3.92a8.69,8.69,0,0,1,3.24,7.22,9.53,9.53,0,0,1-1.86,5.84,11.93,11.93,0,0,1-5.3,3.91,21.08,21.08,0,0,1-7.94,1.4,20.21,20.21,0,0,1-10.08-2.33,16,16,0,0,1-6.38-6.15L537.45,60a12.18,12.18,0,0,0,4.71,5.44,14.76,14.76,0,0,0,7.78,1.92,13.75,13.75,0,0,0,7.36-1.7,5.31,5.31,0,0,0,2.7-4.75,4.72,4.72,0,0,0-2.36-4.15c-1.57-1-4.37-1.89-8.41-2.6q-7.83-1.35-11.06-3.92a8.45,8.45,0,0,1-3.27-7.1,10.44,10.44,0,0,1,1.78-5.8,12,12,0,0,1,5.09-4.2,17.63,17.63,0,0,1,7.7-1.59C556.46,31.52,561.48,34.26,564.57,39.81Z"/><path class="cls-2" d="M605.44,56.61c0,5-1.33,8.81-3.93,11.35s-6.43,3.82-11.41,3.82-8.77-1.28-11.38-3.88-3.95-6.31-3.95-11.29V32.1h4.74V55.41c0,4.13.85,7.13,2.58,9.08s4.37,2.84,8,2.84,6.31-1,8-2.84,2.57-4.95,2.57-9.08V32.1h4.74Z"/><path class="cls-2" d="M641.45,35.32A11.17,11.17,0,0,1,645.07,44a11.17,11.17,0,0,1-3.62,8.69,13.79,13.79,0,0,1-9.55,3.23h-9V71.19H618.1V32.1h13.8A13.91,13.91,0,0,1,641.45,35.32Zm-3.53,14.27a7,7,0,0,0,2.15-5.6,7,7,0,0,0-2.15-5.58c-1.45-1.23-3.67-1.86-6.73-1.86h-8.33V51.48h8.33C634.25,51.48,636.47,50.85,637.92,49.59Z"/><path class="cls-2" d="M682.83,66.74v4.46H654.54V32.1h27.41v4.46H659.26v12.6h17.66v4.45H659.26V66.74Z"/><path class="cls-2" d="M706.7,55h-9.36V71.19H692.6V32.1h14.79c4,0,7.19,1,9.61,3.09a10.31,10.31,0,0,1,3.61,8.34,10.74,10.74,0,0,1-2.3,7A11.75,11.75,0,0,1,712,54.44l11,16.76h-5.64Zm-9.36-4.46h10c5.54,0,8.29-2.32,8.29-7s-2.75-7-8.29-7h-10Z"/><path class="cls-2" d="M737,71.19h-4.73V32.1H737Z"/><path class="cls-2" d="M780.72,71.19h-5.86L758.52,45l-4.16-7.71h0l.24,6.26V71.19H750V32.1h5.86l16.28,26.05L776.41,66h.07l-.25-6.29V32.1h4.49Z"/><path class="cls-2" d="M821.23,36.56H807.61V71.19h-4.74V36.56H789.25V32.1h32Z"/><path class="cls-2" d="M858.13,66.74v4.46h-28.3V32.1h27.42v4.46H834.56v12.6h17.63v4.45H834.56V66.74Z"/><path class="cls-2" d="M898.58,71.19h-5.88L876.36,45l-4.13-7.71h-.09l.25,6.26V71.19H867.9V32.1h5.85L890,58.15,894.24,66h.08l-.24-6.29V32.1h4.51Z"/><path class="cls-2" d="M938.68,37.18q5.2,5.13,5.2,14.46t-5.2,14.46q-5.23,5.09-14.48,5.09H911.59V32.1H924.2Q933.45,32.1,938.68,37.18Zm-3.53,25.59c2.48-2.68,3.76-6.39,3.76-11.13s-1.27-8.45-3.76-11.1-6-4-10.45-4h-8.36V66.74h8.36C929.17,66.74,932.65,65.42,935.15,62.77Z"/><path class="cls-2" d="M982.85,66.74v4.46H954.54V32.1H982v4.46H959.27v12.6h17.66v4.45H959.27V66.74Z"/><path class="cls-2" d="M1023.28,71.19h-5.85L1001.1,45l-4.15-7.71h-.06l.23,6.26V71.19h-4.5V32.1h5.86l16.29,26.05L1019,66h.07l-.24-6.29V32.1h4.49Z"/><path class="cls-2" d="M1061.76,69a17,17,0,0,1-9.7,2.82,18.2,18.2,0,0,1-9.58-2.47,16.31,16.31,0,0,1-6.31-7,24.1,24.1,0,0,1-2.23-10.69A24.43,24.43,0,0,1,1036.17,41a16.34,16.34,0,0,1,6.31-7,18.19,18.19,0,0,1,9.49-2.43,17.93,17.93,0,0,1,9.44,2.3,14,14,0,0,1,5.71,6.84l-4.7,2.15a10.6,10.6,0,0,0-3.76-5.14,11,11,0,0,0-6.35-1.71,12.82,12.82,0,0,0-7.05,1.88,12.15,12.15,0,0,0-4.68,5.41,19.65,19.65,0,0,0-1.66,8.39c0,4.9,1.2,8.75,3.52,11.52a13.05,13.05,0,0,0,16.5,2.19,11.15,11.15,0,0,0,4.14-5.94l4.75,1.78A15.67,15.67,0,0,1,1061.76,69Z"/><path class="cls-2" d="M1082,71.19h-4.73V32.1H1082Z"/><path class="cls-2" d="M1117,60.36h-17.69l-4.16,10.83h-5l15.21-39.09h5.63l15.15,39.09h-5Zm-1.7-4.46L1110,42.05l-1.83-5.44h-.13l-1.72,5.28-5.32,14Z"/><path class="cls-2" d="M1179.68,37.18q5.22,5.13,5.22,14.46t-5.22,14.46q-5.22,5.09-14.44,5.09h-12.63V32.1h12.63Q1174.47,32.1,1179.68,37.18Zm-3.51,25.59q3.75-4,3.75-11.13c0-4.73-1.25-8.45-3.75-11.1s-6-4-10.46-4h-8.35V66.74h8.35Q1172.4,66.74,1176.17,62.77Z"/><path class="cls-2" d="M1223.87,66.74v4.46h-28.3V32.1H1223v4.46h-22.67v12.6h17.63v4.45h-17.63V66.74Z"/><path class="cls-2" d="M564.57,103l-4.08,3.31a12.69,12.69,0,0,0-4.24-5.55,12.23,12.23,0,0,0-6.72-1.61,11.68,11.68,0,0,0-7.07,1.86,5.65,5.65,0,0,0-2.58,4.76,4.8,4.8,0,0,0,1,3.14,7.61,7.61,0,0,0,3.35,2.15,35.39,35.39,0,0,0,6.48,1.65c5.18.84,8.83,2.16,11,3.91a8.7,8.7,0,0,1,3.24,7.22,9.45,9.45,0,0,1-1.86,5.81,11.89,11.89,0,0,1-5.3,3.92,21.07,21.07,0,0,1-7.94,1.39,20.57,20.57,0,0,1-10.08-2.3,16.13,16.13,0,0,1-6.38-6.18l4.09-3.31a12.24,12.24,0,0,0,4.71,5.41,14.45,14.45,0,0,0,7.78,1.94,13.82,13.82,0,0,0,7.36-1.69,5.36,5.36,0,0,0,2.7-4.79,4.7,4.7,0,0,0-2.36-4.13q-2.35-1.52-8.41-2.63c-5.22-.88-8.91-2.19-11.06-3.88a8.46,8.46,0,0,1-3.27-7.11,10.45,10.45,0,0,1,1.78-5.82,12.39,12.39,0,0,1,5.09-4.23,18.39,18.39,0,0,1,7.7-1.56Q560,94.7,564.57,103Z"/><path class="cls-2" d="M602.08,129.93v4.46H573.75V95.3h27.41v4.43H578.5v12.6h17.64v4.45H578.5v13.15Z"/><path class="cls-2" d="M641.27,114.65v19.74H637.7l-.16-5.28a11.09,11.09,0,0,1-4.83,4.34,17,17,0,0,1-7.5,1.51,18.3,18.3,0,0,1-9.6-2.46,16.3,16.3,0,0,1-6.29-7,24,24,0,0,1-2.23-10.69,23.65,23.65,0,0,1,2.27-10.66,16.41,16.41,0,0,1,6.39-7,18.29,18.29,0,0,1,9.59-2.47,18.85,18.85,0,0,1,9.55,2.19,16,16,0,0,1,6.08,6.75L636.64,106a10.07,10.07,0,0,0-4.23-5.12,13.48,13.48,0,0,0-7.06-1.75,12.5,12.5,0,0,0-7,1.88,12.64,12.64,0,0,0-4.67,5.42,19.59,19.59,0,0,0-1.65,8.39q0,7.46,3.42,11.56c2.31,2.73,5.61,4.13,9.91,4.13a12.71,12.71,0,0,0,8.31-2.62,9,9,0,0,0,3.23-7.43v-1.4H624.51v-4.43Z"/><path class="cls-2" d="M681.42,119.82q0,7.5-4,11.35c-2.61,2.54-6.41,3.8-11.38,3.8s-8.78-1.28-11.41-3.86-3.92-6.31-3.92-11.29V95.3h4.73v23.33c0,4.13.84,7.13,2.57,9s4.39,2.87,8,2.87,6.3-1,8-2.87,2.58-4.91,2.58-9V95.3h4.75Z"/><path class="cls-2" d="M706.77,118.15h-9.36v16.24h-4.75V95.3h14.82c4,0,7.19,1,9.6,3.06a10.46,10.46,0,0,1,3.6,8.37,10.64,10.64,0,0,1-2.31,7,11.87,11.87,0,0,1-6.32,3.91l11,16.78h-5.63Zm-9.36-4.45h10q8.28,0,8.27-7c0-4.65-2.75-7-8.27-7h-10Z"/><path class="cls-2" d="M755.91,97.16a16,16,0,0,1,6.3,7,23.9,23.9,0,0,1,2.23,10.69,24,24,0,0,1-2.23,10.69,16.13,16.13,0,0,1-6.3,7,19.92,19.92,0,0,1-19.19,0,16.38,16.38,0,0,1-6.31-7,26.92,26.92,0,0,1,0-21.38,16.27,16.27,0,0,1,6.31-7,19.91,19.91,0,0,1,19.19,0Zm-19.21,6.15c-2.36,2.79-3.53,6.64-3.53,11.54s1.17,8.75,3.53,11.51a13.17,13.17,0,0,0,19.24,0c2.36-2.76,3.53-6.62,3.53-11.51s-1.17-8.75-3.53-11.54a13.22,13.22,0,0,0-19.24,0Z"/><path class="cls-2" d="M801.4,103l-4.08,3.31a12.65,12.65,0,0,0-4.25-5.55,12.13,12.13,0,0,0-6.7-1.61,11.74,11.74,0,0,0-7.08,1.86,5.64,5.64,0,0,0-2.58,4.76,4.76,4.76,0,0,0,1,3.14,7.57,7.57,0,0,0,3.34,2.15,34.81,34.81,0,0,0,6.48,1.65c5.17.84,8.82,2.16,11,3.91a8.69,8.69,0,0,1,3.22,7.22,9.4,9.4,0,0,1-1.86,5.81,11.82,11.82,0,0,1-5.29,3.92,21,21,0,0,1-7.94,1.39,20.76,20.76,0,0,1-10.1-2.3,16.32,16.32,0,0,1-6.38-6.18l4.1-3.31a12,12,0,0,0,4.72,5.41,14.43,14.43,0,0,0,7.77,1.94,13.65,13.65,0,0,0,7.33-1.69,5.29,5.29,0,0,0,2.75-4.79,4.73,4.73,0,0,0-2.38-4.13c-1.57-1-4.39-1.89-8.42-2.63-5.19-.88-8.9-2.19-11.06-3.88a8.52,8.52,0,0,1-3.26-7.11,10.32,10.32,0,0,1,1.77-5.82,12.37,12.37,0,0,1,5.11-4.23,18.19,18.19,0,0,1,7.67-1.56Q796.76,94.7,801.4,103Z"/><path class="cls-2" d="M856.7,100.39c3.48,3.39,5.22,8.23,5.22,14.46s-1.74,11-5.22,14.43-8.28,5.11-14.43,5.11H829.64V95.3h12.62Q851.5,95.3,856.7,100.39Zm-3.52,25.55c2.52-2.68,3.75-6.37,3.75-11.09s-1.23-8.45-3.75-11.14-6-4-10.44-4h-8.37v30.21h8.37C847.21,129.93,850.67,128.59,853.18,125.94Z"/><path class="cls-2" d="M899.46,129.93v4.46H871.17V95.3h27.41v4.43H875.9v12.6h17.66v4.45H875.9v13.15Z"/><path class="cls-2" d="M954,129.93v4.46H926.87V95.3h4.73v34.64Z"/><path class="cls-2" d="M983.14,123.54H965.42l-4.14,10.86h-5l15.22-39.1h5.65l15.15,39.1h-5Zm-1.7-4.46-5.3-13.83-1.84-5.47h-.1l-1.72,5.27-5.35,14Z"/><path class="cls-2" d="M1046.5,134.39h-5.86l-16.34-26.19-4.16-7.71h0l.24,6.3v27.61h-4.5V95.3h5.87L1038,121.35l4.21,7.79h.06l-.23-6.26V95.3h4.48Z"/><path class="cls-2" d="M1080.08,123.54h-17.73l-4.12,10.86h-5l15.23-39.1h5.63l15.13,39.1h-5Zm-1.72-4.46-5.26-13.83-1.85-5.47h-.11l-1.71,5.27-5.32,14Z"/><path class="cls-2" d="M1120.23,132.15a16.91,16.91,0,0,1-9.7,2.82,18.23,18.23,0,0,1-9.6-2.46,16.34,16.34,0,0,1-6.3-7,26.52,26.52,0,0,1,0-21.35,16.16,16.16,0,0,1,6.3-7,19.89,19.89,0,0,1,18.92-.14,13.84,13.84,0,0,1,5.71,6.81l-4.66,2.19a10.68,10.68,0,0,0-3.79-5.17,11.09,11.09,0,0,0-6.34-1.7,12.94,12.94,0,0,0-7,1.86,12.31,12.31,0,0,0-4.69,5.41,19.78,19.78,0,0,0-1.66,8.43c0,4.89,1.17,8.75,3.51,11.51a12,12,0,0,0,9.64,4.18,11.76,11.76,0,0,0,6.85-2,10.86,10.86,0,0,0,4.13-5.93l4.76,1.78A15.45,15.45,0,0,1,1120.23,132.15Z"/><path class="cls-2" d="M1139,134.39h-4.75V95.3H1139Z"/><path class="cls-2" d="M1176,97.16a16.18,16.18,0,0,1,6.3,7,23.77,23.77,0,0,1,2.21,10.69,23.9,23.9,0,0,1-2.21,10.69,16.29,16.29,0,0,1-6.3,7,19.92,19.92,0,0,1-19.19,0,16.12,16.12,0,0,1-6.31-7,26.81,26.81,0,0,1,0-21.38,16,16,0,0,1,6.31-7,19.91,19.91,0,0,1,19.19,0Zm-19.22,6.15q-3.51,4.19-3.52,11.54c0,4.89,1.18,8.75,3.52,11.51a13.17,13.17,0,0,0,19.24,0c2.36-2.76,3.54-6.62,3.54-11.51s-1.18-8.75-3.54-11.54a13.22,13.22,0,0,0-19.24,0Zm16.08-21.71-5.09,8.78h-3.86l3.38-8.78Z"/><path class="cls-2" d="M1224.51,134.39h-5.87l-16.33-26.19-4.15-7.71h0l.23,6.3v27.61h-4.51V95.3h5.86L1216,121.35l4.23,7.79h.05l-.25-6.26V95.3h4.51Z"/><path class="cls-1" d="M84.07,0a84.06,84.06,0,1,0,84.07,84.07A84.07,84.07,0,0,0,84.07,0m0,159.64a75.57,75.57,0,1,1,75.57-75.57,75.57,75.57,0,0,1-75.57,75.57"/><path class="cls-3" d="M84.08,57C116.56,57,136.53,68.62,148,79.2a63.61,63.61,0,0,0-6.42-23.53c-11.73-14.25-29.89-26.75-57.51-26.75S38.25,41.45,26.52,55.7a64,64,0,0,0-6.4,23.5C31.61,68.62,51.57,57,84.08,57Z"/><path class="cls-1" d="M20.55,93a64.06,64.06,0,0,0,7.57,22.41c13.79-9.73,33.36-19.6,56-19.6s42.14,9.85,55.9,19.58A63.76,63.76,0,0,0,147.58,93c-10.71-14-29.72-26.25-63.49-26.25S31.26,79,20.55,93Z"/><path class="cls-1" d="M134.35,123.89c-11.64-10.4-27.88-18.48-50.26-18.48S45.44,113.49,33.8,123.9A64.39,64.39,0,0,0,48.27,137.3a113.58,113.58,0,0,1,35.8-5.37,113.52,113.52,0,0,1,35.79,5.37A64.69,64.69,0,0,0,134.35,123.89Z"/><rect class="cls-2" x="497.38" y="31.45" width="3.71" height="106.35"/></g></g></svg>